<mxfile host="app.diagrams.net" agent="Mozilla/5.0 (Windows NT 10.0; Win64; x64) AppleWebKit/537.36 (KHTML, like Gecko) Chrome/131.0.0.0 Safari/537.36" version="26.0.8">
  <diagram name="Page-1" id="RHF4OOZyK-tfH14qXVRz">
    <mxGraphModel dx="1434" dy="738" grid="1" gridSize="10" guides="1" tooltips="1" connect="1" arrows="1" fold="1" page="1" pageScale="1" pageWidth="850" pageHeight="1100" math="0" shadow="0">
      <root>
        <mxCell id="0" />
        <mxCell id="1" parent="0" />
        <mxCell id="c59Ct3J4wvm-C2DQvT9R-2" value="product_id&lt;div&gt;&lt;span style=&quot;background-color: transparent; color: light-dark(rgb(0, 0, 0), rgb(255, 255, 255));&quot;&gt;product_name&lt;/span&gt;&lt;/div&gt;&lt;div&gt;&lt;span style=&quot;background-color: transparent; color: light-dark(rgb(0, 0, 0), rgb(255, 255, 255));&quot;&gt;product_size&lt;/span&gt;&lt;/div&gt;&lt;div&gt;&lt;span style=&quot;background-color: transparent; color: light-dark(rgb(0, 0, 0), rgb(255, 255, 255));&quot;&gt;product_category_id&lt;/span&gt;&lt;/div&gt;&lt;div&gt;&lt;span style=&quot;background-color: transparent; color: light-dark(rgb(0, 0, 0), rgb(255, 255, 255));&quot;&gt;product_qty_type&lt;/span&gt;&lt;/div&gt;" style="rounded=1;whiteSpace=wrap;html=1;" vertex="1" parent="1">
          <mxGeometry x="190" y="320" width="150" height="140" as="geometry" />
        </mxCell>
        <mxCell id="c59Ct3J4wvm-C2DQvT9R-6" value="Product" style="rounded=0;whiteSpace=wrap;html=1;" vertex="1" parent="1">
          <mxGeometry x="190" y="280" width="150" height="60" as="geometry" />
        </mxCell>
        <mxCell id="c59Ct3J4wvm-C2DQvT9R-7" value="product_id&lt;div&gt;ventor_id&lt;/div&gt;&lt;div&gt;market_date&lt;/div&gt;&lt;div&gt;customer_id&lt;/div&gt;&lt;div&gt;quantity&lt;/div&gt;&lt;div&gt;cost_to_customer_per_qt&lt;/div&gt;&lt;div&gt;trasaction_time&lt;/div&gt;" style="rounded=1;whiteSpace=wrap;html=1;" vertex="1" parent="1">
          <mxGeometry x="470" y="320" width="150" height="140" as="geometry" />
        </mxCell>
        <mxCell id="c59Ct3J4wvm-C2DQvT9R-8" value="Customer Purchases" style="rounded=0;whiteSpace=wrap;html=1;" vertex="1" parent="1">
          <mxGeometry x="470" y="280" width="150" height="60" as="geometry" />
        </mxCell>
        <mxCell id="c59Ct3J4wvm-C2DQvT9R-9" value="" style="endArrow=none;html=1;rounded=0;entryX=0.267;entryY=0.214;entryDx=0;entryDy=0;entryPerimeter=0;" edge="1" parent="1">
          <mxGeometry width="50" height="50" relative="1" as="geometry">
            <mxPoint x="302" y="360" as="sourcePoint" />
            <mxPoint x="512.05" y="347.96000000000004" as="targetPoint" />
            <Array as="points">
              <mxPoint x="410" y="360" />
              <mxPoint x="410" y="348" />
            </Array>
          </mxGeometry>
        </mxCell>
        <mxCell id="c59Ct3J4wvm-C2DQvT9R-11" value="1" style="text;html=1;align=center;verticalAlign=middle;resizable=0;points=[];autosize=1;strokeColor=none;fillColor=none;" vertex="1" parent="1">
          <mxGeometry x="340" y="330" width="30" height="30" as="geometry" />
        </mxCell>
        <mxCell id="c59Ct3J4wvm-C2DQvT9R-12" value="&lt;span style=&quot;color: rgb(0, 29, 53); font-family: &amp;quot;Google Sans&amp;quot;, Arial, sans-serif; font-size: 16px; text-align: left; text-wrap-mode: wrap; background-color: rgb(255, 255, 255);&quot;&gt;âˆž&lt;/span&gt;" style="text;html=1;align=center;verticalAlign=middle;resizable=0;points=[];autosize=1;strokeColor=none;fillColor=none;" vertex="1" parent="1">
          <mxGeometry x="440" y="348" width="30" height="30" as="geometry" />
        </mxCell>
      </root>
    </mxGraphModel>
  </diagram>
</mxfile>
